<?xml version="1.0" encoding="UTF-8"?>
<!DOCTYPE svg PUBLIC "-//W3C//DTD SVG 1.1//EN" "http://www.w3.org/Graphics/SVG/1.1/DTD/svg11.dtd">
<svg xmlns="http://www.w3.org/2000/svg" version="1.1" width="512px" height="512px" style="shape-rendering:geometricPrecision; text-rendering:geometricPrecision; image-rendering:optimizeQuality; fill-rule:evenodd; clip-rule:evenodd" xmlns:xlink="http://www.w3.org/1999/xlink">
<g><path style="opacity:0.969" fill="#000000" d="M 511.5,21.5 C 511.5,26.5 511.5,31.5 511.5,36.5C 510.295,39.2341 508.795,41.9007 507,44.5C 428.5,123 350,201.5 271.5,280C 260.833,287.333 250.167,287.333 239.5,280C 161,201.5 82.5,123 4,44.5C 2.39518,41.8085 0.895182,39.1418 -0.5,36.5C -0.5,31.5 -0.5,26.5 -0.5,21.5C 4.92033,8.78395 14.587,3.28395 28.5,5C 32.538,5.89932 36.2046,7.56599 39.5,10C 111.347,82.0136 183.347,153.847 255.5,225.5C 327.653,153.847 399.653,82.0136 471.5,10C 482.167,2.66667 492.833,2.66667 503.5,10C 506.805,13.4636 509.472,17.297 511.5,21.5 Z"/></g>
<g><path style="opacity:0.969" fill="#000000" d="M 511.5,242.5 C 511.5,247.5 511.5,252.5 511.5,257.5C 509.692,260.436 507.859,263.436 506,266.5C 427.833,344.667 349.667,422.833 271.5,501C 260.833,508.333 250.167,508.333 239.5,501C 161.333,422.833 83.1667,344.667 5,266.5C 3.1412,263.436 1.30787,260.436 -0.5,257.5C -0.5,252.5 -0.5,247.5 -0.5,242.5C 4.89638,229.795 14.563,224.295 28.5,226C 32.5442,226.856 36.2108,228.522 39.5,231C 111.347,303.014 183.347,374.847 255.5,446.5C 327.653,374.847 399.653,303.014 471.5,231C 484.271,222.827 496.104,223.994 507,234.5C 508.795,237.099 510.295,239.766 511.5,242.5 Z"/></g>
</svg>
