<?xml version="1.0" standalone="no"?>
<!DOCTYPE svg PUBLIC "-//W3C//DTD SVG 20010904//EN"
 "http://www.w3.org/TR/2001/REC-SVG-20010904/DTD/svg10.dtd">
<svg version="1.0" xmlns="http://www.w3.org/2000/svg"
 width="1280.000000pt" height="797.000000pt" viewBox="0 0 1280.000000 797.000000"
 preserveAspectRatio="xMidYMid meet">
<g transform="translate(0.000000,797.000000) scale(0.100000,-0.100000)"
fill="#000000" stroke="none">
<path d="M3940 7955 c-7 -8 -20 -15 -29 -15 -69 0 -205 -57 -281 -119 -49 -40
-3477 -3471 -3508 -3511 -30 -40 -60 -99 -89 -175 -49 -127 -33 -262 48 -410
12 -22 33 -53 47 -70 13 -16 803 -810 1756 -1764 1151 -1153 1751 -1747 1790
-1772 67 -44 142 -74 209 -84 25 -4 52 -13 58 -21 14 -17 41 -18 56 -3 5 5 45
19 88 30 109 27 178 64 256 137 107 100 169 241 169 385 0 91 -16 159 -57 247
-35 74 -55 95 -1301 1342 -850 851 -1263 1271 -1256 1278 7 7 1742 11 5229 12
l5220 3 60 22 c94 34 153 71 220 137 67 67 101 122 142 230 50 131 33 267 -52
419 -61 109 -171 199 -299 246 l-71 26 -5220 3 c-3487 1 -5222 5 -5229 12 -7
7 406 427 1256 1278 1246 1247 1266 1268 1301 1342 41 88 57 156 57 247 0 144
-62 285 -169 385 -78 73 -147 110 -256 137 -43 11 -83 25 -88 30 -16 16 -42
13 -57 -4z"/>
</g>
</svg>
